<?xml version="1.0" standalone="no"?>
<!DOCTYPE svg PUBLIC "-//W3C//DTD SVG 20010904//EN"
 "http://www.w3.org/TR/2001/REC-SVG-20010904/DTD/svg10.dtd">
<svg version="1.0" xmlns="http://www.w3.org/2000/svg"
 width="373.588325pt" height="315.402580pt" viewBox="0 0 373.588325 315.402580"
 preserveAspectRatio="xMidYMid meet">
<metadata>
Created by potrace 1.12, written by Peter Selinger 2001-2015
</metadata>
<g transform="translate(-108.411675,343.558622) scale(0.100000,-0.100000)"
fill="#000000" stroke="none">
<path d="M1518 3430 c-21 -13 -68 -91 -156 -260 -36 -69 -73 -141 -84 -160
-22 -43 -23 -56 -2 -64 14 -5 15 -4 5 8 -9 11 -1 34 40 112 87 166 160 297
187 333 l25 34 776 -7 c1118 -10 1973 -24 1993 -31 13 -5 131 -189 147 -230 2
-5 28 -53 58 -105 30 -52 57 -110 61 -129 5 -31 4 -33 -16 -22 -11 6 -27 11
-34 11 -7 0 0 -7 16 -15 67 -35 62 22 -15 160 -141 255 -190 333 -212 339 -61
18 -2763 43 -2789 26z"/>
<path d="M1543 3398 c7 -4 73 -7 147 -6 156 1 139 6 -37 10 -66 2 -116 0 -110
-4z"/>
<path d="M2485 3403 c47 -10 50 -14 20 -28 -35 -15 -28 -20 8 -6 15 6 37 6 54
1 l28 -8 -29 -1 c-16 -1 -26 -4 -22 -8 13 -13 39 -12 53 3 12 11 47 14 173 12
88 -1 157 -5 154 -9 -2 -4 10 -4 28 2 18 5 46 8 63 8 30 -2 30 -2 -5 -9 -21
-4 -26 -8 -14 -9 12 0 37 -3 55 -6 29 -4 30 -3 9 4 -22 8 -22 9 -5 11 61 6
354 6 345 0 -7 -4 28 -5 77 -3 48 3 90 7 93 10 3 3 -29 3 -70 2 -41 -2 -80 0
-86 4 -6 4 -62 5 -125 3 -62 -2 -126 0 -141 5 -16 4 -26 4 -24 0 3 -4 -124 -6
-281 -4 -236 2 -290 5 -309 18 -13 8 -34 14 -46 14 -20 -1 -21 -2 -3 -6z"/>
<path d="M1854 3386 c-3 -8 -15 -11 -32 -8 -15 3 -25 2 -22 -1 3 -3 25 -8 50
-10 25 -3 37 -3 28 -1 -21 6 -23 20 -5 27 9 4 9 6 -1 6 -7 1 -15 -5 -18 -13z"/>
<path d="M4185 3373 c33 -2 64 -8 70 -14 5 -5 14 -9 20 -9 5 0 1 7 -9 15 -13
10 -40 14 -80 13 l-61 -2 60 -3z"/>
<path d="M1766 3349 c2 -4 22 -9 43 -11 22 -2 37 0 35 3 -2 4 -22 9 -43 11
-22 2 -37 0 -35 -3z"/>
<path d="M4230 3355 c0 -3 10 -22 23 -43 39 -63 51 -96 52 -134 0 -36 -9 -51
-17 -27 -2 7 -8 6 -16 -4 -11 -12 -10 -15 5 -13 11 0 17 -5 15 -14 -1 -10 3
-9 13 5 9 11 13 25 11 32 -3 7 -1 15 4 18 6 4 10 2 10 -3 0 -6 11 -9 25 -8 22
1 23 3 11 21 -7 11 -16 32 -19 47 -4 15 -13 33 -20 40 -6 8 -17 22 -23 33 -6
10 -17 21 -25 23 -10 4 -9 0 4 -15 9 -11 17 -25 17 -31 0 -7 5 -12 11 -12 5 0
7 -5 3 -12 -4 -6 -3 -8 4 -4 12 7 27 -29 17 -43 -3 -5 -1 -12 5 -16 5 -3 10
-11 10 -17 0 -7 -6 -6 -15 2 -8 7 -15 18 -15 24 0 13 -23 59 -59 119 -21 34
-31 44 -31 32z"/>
<path d="M1509 3233 c-8 -10 -21 -31 -29 -46 -8 -16 -16 -24 -18 -18 -2 7 1
18 8 25 8 11 8 16 -2 22 -7 4 -10 3 -5 -1 9 -10 -22 -47 -34 -40 -4 3 -11 0
-15 -6 -4 -8 -3 -9 4 -5 8 5 12 0 12 -13 0 -12 -4 -21 -10 -21 -5 0 -10 -10
-10 -22 0 -21 1 -21 15 6 8 15 15 36 15 45 0 13 2 14 9 2 9 -14 -11 -84 -31
-105 -14 -16 -9 -29 6 -16 8 6 16 21 18 33 2 12 9 21 15 20 7 -2 10 5 9 15 -2
9 3 31 10 47 13 29 13 29 14 5 1 -23 2 -23 9 -5 l8 20 5 -20 c5 -16 6 -17 7
-3 1 19 43 34 60 23 6 -3 11 -1 11 6 0 7 -13 10 -35 7 -19 -2 -35 -3 -35 -1 0
1 12 9 28 17 15 8 22 15 16 16 -6 0 -23 -9 -37 -20 -14 -11 -28 -20 -31 -20
-13 0 18 49 38 58 15 8 17 11 5 11 -9 1 -22 -7 -30 -16z"/>
<path d="M1486 3099 c5 -8 -21 -31 -28 -24 -2 3 -5 -1 -5 -9 0 -8 5 -14 11
-13 6 1 10 -6 10 -15 -1 -10 2 -18 7 -18 5 0 9 9 9 19 0 11 5 23 12 27 8 5 9
2 5 -10 -4 -9 -3 -15 2 -12 5 3 12 -1 15 -10 9 -22 8 -24 -9 -18 -8 4 -15 1
-15 -5 0 -6 3 -10 8 -10 21 4 24 -2 8 -14 -16 -12 -12 -13 33 -11 29 1 56 5
59 9 4 4 -10 5 -30 1 -32 -6 -38 -4 -38 10 0 15 11 16 113 11 137 -8 2014 -22
2007 -15 -3 3 -441 9 -975 13 -1013 8 -1146 11 -1153 33 -2 8 3 10 15 6 14 -5
15 -4 3 4 -8 6 -18 8 -22 6 -4 -3 -8 2 -8 10 0 18 -16 21 -25 6 -3 -5 -11 -10
-16 -10 -19 0 2 20 34 34 l32 13 -32 -1 c-17 -1 -29 -4 -27 -7z"/>
<path d="M4270 3079 l-35 -8 41 2 c47 3 81 -21 70 -50 -6 -15 -9 -15 -17 -3
-9 12 -10 12 -5 -3 5 -15 2 -17 -17 -12 -18 5 -19 4 -7 -5 11 -9 -35 -10 -188
-5 -112 3 -201 2 -199 -2 3 -4 96 -8 206 -8 150 0 201 -3 201 -12 0 -19 57
-11 69 10 9 13 8 17 -4 17 -8 0 -15 -5 -15 -11 0 -6 -6 -9 -14 -6 -8 3 -17 1
-20 -6 -2 -7 -5 -5 -5 4 -1 21 19 37 41 34 11 -2 15 2 11 11 -3 9 2 14 16 14
15 0 23 -10 32 -39 11 -38 21 -44 47 -27 11 7 11 11 0 24 -23 30 -35 57 -32
75 1 9 -1 17 -6 17 -18 0 -15 -26 8 -68 13 -23 22 -45 19 -48 -3 -3 -15 12
-27 35 -18 36 -25 41 -54 41 -20 0 -40 8 -51 20 -10 11 -21 19 -24 19 -3 -1
-22 -5 -41 -10z"/>
<path d="M1357 2987 c-5 -15 1 -17 47 -17 30 0 63 -3 73 -6 15 -5 15 -4 3 5
-8 6 -36 11 -62 11 -27 0 -48 5 -50 12 -3 7 -7 6 -11 -5z"/>
<path d="M2093 2975 c0 -6 7 -11 16 -11 9 0 30 -2 46 -4 l30 -3 -35 -6 -35 -7
45 -5 c25 -2 83 -1 130 2 l85 5 -85 2 c-56 2 -80 5 -70 11 8 6 17 8 21 5 4 -2
10 3 13 12 5 13 0 13 -28 -4 -19 -11 -37 -17 -41 -14 -3 3 -25 11 -49 17 -31
8 -43 8 -43 0z"/>
<path d="M2528 2973 c46 -2 118 -2 160 0 42 1 5 3 -83 3 -88 0 -123 -2 -77 -3z"/>
<path d="M2917 2973 c18 -2 50 -2 70 0 21 2 7 4 -32 4 -38 0 -55 -2 -38 -4z"/>
<path d="M3103 2973 c43 -2 110 -2 150 0 40 1 5 3 -78 3 -82 0 -115 -2 -72 -3z"/>
<path d="M3758 2973 c27 -3 40 -8 36 -15 -4 -7 -2 -8 4 -4 7 4 12 1 12 -8 0
-9 8 -16 18 -16 14 0 15 2 2 10 -11 7 -1 10 35 11 28 1 58 1 68 0 9 -1 17 2
17 6 0 5 -31 7 -70 5 -46 -3 -70 0 -70 7 0 7 -19 10 -47 9 l-48 -1 43 -4z"/>
<path d="M4421 2963 c-1 -6 -18 -13 -38 -15 -27 -3 -18 -5 30 -8 37 -3 67 -2
67 3 0 4 -11 7 -24 7 -13 0 -27 6 -29 13 -4 8 -6 9 -6 0z"/>
<path d="M1437 2944 c4 -10 -3 -14 -25 -14 -16 0 -43 -7 -58 -15 l-29 -15 27
2 c15 1 24 6 22 10 -3 4 13 8 35 8 22 0 41 5 43 12 4 10 11 10 33 0 19 -9 31
-10 38 -3 7 7 4 10 -9 9 -10 0 -33 5 -51 10 -26 8 -31 8 -26 -4z"/>
<path d="M1543 2953 c26 -2 68 -2 95 0 26 2 4 3 -48 3 -52 0 -74 -1 -47 -3z"/>
<path d="M2493 2953 c34 -4 53 -22 25 -24 -66 -5 -403 3 -415 10 -9 5 -29 5
-46 0 -27 -8 -130 -5 -254 6 -28 3 -54 1 -57 -3 -3 -5 -20 -7 -38 -6 l-33 3
30 -8 30 -9 -31 -1 c-17 0 -34 2 -37 5 -3 4 -26 7 -51 8 -25 0 -41 -3 -37 -7
13 -13 44 -15 63 -6 10 6 19 5 23 -1 7 -11 97 -7 126 5 9 3 78 4 153 2 96 -3
136 -1 137 7 0 6 4 2 9 -9 5 -11 9 -14 9 -7 1 7 6 10 12 6 6 -3 84 -6 173 -5
88 1 176 -3 194 -8 17 -5 32 -7 32 -3 0 4 34 8 75 9 52 2 75 -1 75 -9 0 -7 7
-3 15 8 14 19 14 19 15 -1 0 -15 2 -17 9 -6 7 11 9 11 14 0 3 -8 6 -9 6 -4 1
6 30 8 76 5 41 -3 75 -2 75 3 0 4 -33 8 -72 8 -55 1 -66 3 -43 9 l30 8 -27 1
c-15 0 -30 -4 -33 -9 -4 -7 -12 -7 -24 0 -10 5 -20 8 -22 6 -2 -2 -38 -6 -79
-9 -46 -3 -63 -2 -45 3 29 7 29 8 5 11 -14 2 25 6 85 9 l110 6 -150 0 c-82 1
-133 -1 -112 -3z"/>
<path d="M2883 2953 c54 -2 139 -2 190 0 51 1 7 3 -98 3 -104 0 -146 -2 -92
-3z"/>
<path d="M3265 2950 c29 -7 29 -8 5 -10 l-25 -2 25 -8 c14 -4 -45 -7 -135 -6
-88 0 -146 3 -130 7 17 3 -7 5 -51 5 -77 -1 -99 -15 -24 -16 19 0 52 -4 73 -9
20 -5 37 -6 37 -1 0 4 62 5 138 3 112 -3 292 -3 349 0 7 0 10 4 7 9 -3 4 0 8
7 8 7 0 9 3 6 6 -4 4 -13 1 -21 -5 -16 -14 -166 -11 -201 3 -16 6 -17 6 -5 -4
13 -9 12 -11 -5 -8 -11 2 -20 10 -20 18 0 10 -11 16 -30 17 l-30 2 30 -9z"/>
<path d="M1325 2940 l30 -8 -30 -2 c-16 -2 -40 -2 -52 -1 -23 2 -32 -22 -13
-34 11 -7 476 -11 2020 -20 603 -3 1112 -11 1160 -16 105 -12 129 -12 146 2
17 14 18 29 3 29 -5 0 -7 -5 -3 -11 4 -8 -1 -9 -17 -4 -16 4 -20 3 -11 -3 11
-7 9 -10 -7 -15 -17 -4 -21 -1 -21 17 0 36 -48 46 -206 44 l-139 -2 115 -3
c76 -3 117 -8 122 -16 6 -9 8 -9 8 1 0 14 46 17 55 3 3 -5 -3 -12 -12 -14 -10
-2 -3 -2 15 0 25 3 32 0 32 -13 0 -10 -5 -14 -14 -11 -33 13 -312 18 -1271 23
-1497 7 -1957 12 -1967 22 -4 4 11 8 33 9 22 1 46 6 52 12 7 5 23 11 37 14 14
2 -2 4 -35 4 -47 1 -53 -1 -30 -7z"/>
<path d="M3645 2930 c37 -8 36 -9 -15 -6 -60 4 -80 0 -80 -16 0 -7 5 -7 13 -1
14 11 150 9 168 -3 8 -4 10 -3 5 4 -4 7 -14 12 -22 12 -8 0 -13 3 -11 8 3 4
-18 8 -46 8 l-52 2 40 -8z"/>
<path d="M3747 2923 c9 -8 46 -13 84 -13 37 0 75 -3 85 -7 12 -4 15 -3 10 5
-4 7 -22 13 -39 14 -21 1 -12 4 23 8 l55 7 -52 1 c-28 1 -55 -2 -58 -8 -3 -5
-24 -10 -46 -10 -22 0 -38 3 -36 8 3 4 -6 7 -19 7 -22 0 -23 -1 -7 -12z"/>
<path d="M3998 2913 c17 -2 47 -2 65 0 17 2 3 4 -33 4 -36 0 -50 -2 -32 -4z"/>
<path d="M4013 2893 c26 -2 67 -2 90 0 23 2 2 3 -48 3 -49 0 -68 -1 -42 -3z"/>
<path d="M4238 2893 c23 -2 61 -2 85 0 23 2 4 4 -43 4 -47 0 -66 -2 -42 -4z"/>
<path d="M1569 2867 c5 -5 28 -7 52 -5 l44 3 -52 5 c-29 3 -48 1 -44 -3z"/>
<path d="M1748 2863 c34 -2 88 -2 120 0 31 2 3 3 -63 3 -66 0 -92 -1 -57 -3z"/>
<path d="M1320 2858 c0 -3 7 -21 15 -39 10 -24 14 -28 14 -14 0 11 -6 29 -14
39 -8 11 -15 17 -15 14z"/>
<path d="M2388 2853 c39 -2 105 -2 145 0 39 1 7 3 -73 3 -80 0 -112 -2 -72 -3z"/>
<path d="M3420 2853 c0 -17 19 -26 33 -15 7 5 26 8 42 7 58 -5 617 -6 622 -1
3 2 -125 5 -283 5 -159 1 -310 4 -335 7 -32 4 -49 2 -54 -6 -6 -9 -9 -9 -16 1
-6 10 -9 10 -9 2z"/>
<path d="M1385 2830 l30 -7 -30 -5 c-16 -3 31 -5 105 -4 l135 0 -105 5 -105 5
120 6 120 6 -150 1 c-82 0 -136 -3 -120 -7z"/>
<path d="M4357 2833 c-3 -5 10 -8 28 -8 18 0 31 3 28 8 -2 4 -15 7 -28 7 -13
0 -26 -3 -28 -7z"/>
<path d="M4555 2728 c0 -181 -9 -238 -37 -238 -7 0 -6 5 2 15 11 13 10 14 -4
9 -23 -9 -20 -34 4 -34 14 0 20 -7 20 -21 0 -11 -4 -18 -9 -15 -13 8 -23 -55
-11 -69 12 -14 -30 -131 -95 -270 -56 -122 -78 -175 -72 -181 3 -4 43 -7 89
-9 77 -2 79 -2 23 5 -46 6 -34 7 50 4 61 -1 139 0 175 4 44 5 2 8 -133 7 -108
0 -197 2 -197 5 0 3 5 12 10 20 9 13 10 13 10 0 0 -10 3 -11 8 -3 4 7 29 10
62 9 53 -2 85 8 75 24 -3 4 1 10 8 13 9 3 13 -3 13 -15 -1 -12 5 -23 12 -25 7
-3 12 -1 11 4 -1 4 -1 14 0 22 1 11 4 11 19 0 15 -13 16 -12 3 4 -8 9 -16 15
-19 12 -3 -2 -13 5 -23 16 l-17 20 -8 -23 c-4 -13 -7 -27 -6 -32 2 -5 -5 -5
-15 -1 -10 5 -33 10 -50 13 -18 2 -33 5 -33 7 0 13 26 72 34 77 7 5 7 8 -2 8
-7 0 -17 -10 -22 -22 -8 -21 -9 -21 -9 -3 0 11 6 29 14 39 8 11 15 14 15 8 0
-7 5 -11 12 -10 14 3 17 -34 3 -44 -5 -4 8 -5 30 -4 33 3 47 -3 89 -37 28 -22
50 -44 49 -48 -3 -10 11 -12 20 -3 3 4 -26 31 -66 61 -88 67 -99 78 -72 69 16
-5 15 -2 -5 14 -14 11 -29 20 -33 20 -4 0 -3 9 3 20 10 18 17 15 113 -56 56
-41 113 -84 127 -95 l25 -20 -30 5 c-28 4 -28 3 -10 -10 17 -12 17 -14 2 -14
-10 0 -22 11 -29 25 -6 13 -15 22 -20 19 -4 -3 -11 2 -14 10 -3 9 -12 16 -20
16 -7 0 -20 10 -29 23 -8 12 -18 21 -22 19 -4 -2 -10 5 -14 15 -7 15 -8 16 -8
1 -1 -9 25 -36 58 -60 33 -23 62 -51 64 -60 4 -14 15 -18 44 -17 21 0 32 3 25
6 -6 2 -9 9 -6 14 7 13 34 -9 34 -27 0 -20 -29 -31 -85 -32 -72 -3 -316 -22
-342 -27 -14 -3 -25 -17 -33 -42 -22 -67 -58 -123 -78 -117 -13 5 -14 4 -3 -4
34 -24 -77 -37 -151 -17 -31 8 -164 24 -295 35 -131 11 -296 25 -368 31 -176
16 -290 15 -485 -5 -91 -8 -248 -23 -350 -31 -343 -29 -524 -46 -704 -66 -98
-11 -182 -17 -186 -12 -15 16 -70 130 -91 186 -24 66 -41 77 -120 77 l-49 0 0
-35 c0 -29 4 -35 23 -36 18 -1 19 -2 3 -6 -15 -4 -17 -12 -13 -43 3 -21 16
-54 29 -72 14 -18 49 -91 78 -163 110 -267 224 -502 247 -509 10 -3 34 -1 53
4 19 6 80 10 135 10 55 0 172 9 260 20 195 24 699 76 1400 144 143 14 321 32
395 40 686 73 722 80 678 124 -20 20 1 14 32 -10 16 -11 27 -25 24 -29 -3 -5
1 -6 9 -3 26 9 28 -13 3 -29 -31 -21 -55 -24 -1016 -126 -96 -11 -188 -24
-203 -30 -16 -6 -49 -11 -75 -11 -50 0 -124 -18 -184 -44 -32 -14 -38 -14 -38
-2 0 8 10 17 23 19 30 6 -59 -2 -163 -13 -47 -6 -148 -17 -225 -25 -131 -14
-335 -37 -620 -69 -66 -8 -105 -14 -86 -15 19 -1 73 3 120 9 152 18 442 50
586 65 77 8 176 20 221 25 44 6 92 10 107 10 58 0 15 -31 -63 -45 -25 -4 -31
-3 -20 4 12 8 11 10 -7 8 -17 -1 -19 -4 -11 -14 8 -10 5 -13 -11 -14 -24 -2
-30 -3 -53 -13 -9 -4 -22 -4 -29 0 -8 4 -9 3 -5 -4 4 -8 0 -12 -12 -12 -22 0
-126 -30 -120 -35 5 -5 125 24 211 52 43 14 84 22 92 19 7 -2 15 -1 17 4 7 21
207 80 270 80 26 0 59 5 75 11 15 6 105 19 198 29 94 10 325 35 514 55 376 41
365 42 358 -22 -1 -17 0 -30 4 -27 4 2 9 -6 12 -18 4 -12 9 -20 12 -16 3 3 2
16 -3 29 -5 13 -12 40 -16 60 l-6 36 67 7 c64 7 113 30 113 53 0 5 -21 25 -47
44 -70 50 -69 49 -70 29 -1 -11 2 -22 8 -25 30 -19 -20 -36 -166 -55 -151 -19
-547 -61 -895 -95 -676 -66 -1176 -118 -1405 -144 -210 -25 -422 -33 -397 -15
9 6 26 14 37 17 11 2 2 5 -20 6 -25 0 -35 -2 -27 -8 11 -7 10 -9 -3 -15 -9 -3
-13 -10 -10 -16 3 -5 -1 -10 -9 -10 -13 0 -59 69 -93 140 -72 151 -113 243
-113 254 0 6 -4 16 -9 21 -13 14 -113 257 -112 275 0 8 -3 36 -5 63 -5 38 -10
47 -25 47 -14 0 -19 7 -19 25 0 23 3 25 50 25 60 0 80 -16 105 -86 9 -27 20
-56 25 -65 51 -99 64 -119 79 -119 9 0 72 7 141 15 118 14 520 52 805 75 72 6
200 18 285 27 188 18 313 19 485 4 72 -6 237 -20 367 -31 131 -11 265 -27 298
-36 45 -11 72 -13 112 -5 61 11 78 28 117 123 l27 63 134 12 c74 6 174 13 221
15 l86 3 -1 35 c-1 33 -9 41 -128 130 -70 52 -137 105 -149 116 l-21 21 25 54
c30 67 43 119 28 119 -6 0 -11 8 -11 18 0 13 2 14 9 3 12 -18 22 13 21 65 0
22 4 71 9 109 11 78 12 208 2 243 -3 13 -6 -28 -6 -90z m-80 -571 c-14 -20
-13 -23 7 -39 13 -10 19 -18 13 -17 -5 0 -18 6 -27 13 -15 11 -16 18 -7 45 6
17 15 28 20 25 5 -3 2 -15 -6 -27z m-70 -152 c-9 -20 -18 -35 -21 -32 -3 3 2
22 11 42 8 21 18 36 20 33 3 -3 -2 -22 -10 -43z m93 -30 c4 -5 -1 -5 -11 -2
-10 4 -32 7 -48 7 -16 0 -29 4 -29 9 0 10 77 -3 88 -14z m-3026 -162 c0 -10 2
-25 3 -33 1 -8 -1 -19 -4 -24 -6 -12 -19 22 -20 52 -1 26 18 30 21 5z"/>
<path d="M4522 2793 c-6 -20 -7 -32 -2 -27 10 10 25 64 18 64 -3 0 -10 -16
-16 -37z"/>
<path d="M4538 2710 c-2 -44 0 -80 5 -80 4 0 7 36 7 80 0 44 -2 80 -4 80 -3 0
-6 -36 -8 -80z"/>
<path d="M1290 2760 c-14 -11 -53 -36 -87 -56 -75 -42 -128 -103 -118 -135 6
-19 12 -21 52 -15 25 3 56 6 69 6 44 0 28 29 -18 33 -24 2 -6 4 40 3 45 -1 82
3 82 7 0 5 5 5 11 1 8 -4 7 -9 -2 -15 -7 -4 -17 -5 -21 -3 -4 3 -8 0 -8 -5 0
-6 4 -11 8 -11 12 0 49 29 37 30 -5 0 -3 5 5 11 12 9 12 10 -4 5 -15 -5 -17
-3 -11 16 4 13 9 51 12 86 6 69 -3 77 -47 42z m38 -35 c2 -49 -20 -115 -39
-115 -6 0 -9 6 -6 13 3 9 -6 11 -33 9 -21 -2 -47 1 -57 7 -10 6 -12 11 -5 11
6 0 12 5 12 11 0 8 -5 7 -15 -1 -22 -18 -5 -32 47 -41 41 -6 40 -7 -19 -8 -72
-1 -102 -9 -81 -22 7 -5 31 -9 53 -10 36 -1 34 -2 -19 -11 -76 -12 -88 -1 -52
47 24 31 124 104 144 105 4 1 21 12 37 25 17 14 30 25 31 25 0 0 2 -20 2 -45z"/>
<path d="M1277 2721 c-36 -24 -46 -34 -23 -25 15 6 17 4 11 -6 -6 -9 -4 -11 4
-6 7 5 10 10 7 13 -3 3 5 14 17 24 28 23 21 23 -16 0z"/>
<path d="M1310 2694 c0 -11 -3 -15 -8 -8 -4 6 -13 4 -24 -8 -10 -10 -14 -18
-9 -18 6 0 13 5 17 11 5 8 9 8 14 -1 6 -9 10 -6 15 9 4 13 4 25 1 28 -3 4 -6
-2 -6 -13z"/>
<path d="M1492 2743 c82 -2 214 -2 295 0 82 1 15 3 -147 3 -162 0 -229 -2
-148 -3z"/>
<path d="M4510 2713 c0 -24 3 -33 9 -25 7 12 4 62 -5 62 -2 0 -4 -17 -4 -37z"/>
<path d="M4506 2635 c-3 -9 -5 -35 -5 -58 2 -40 2 -39 9 13 7 59 6 71 -4 45z"/>
<path d="M4523 2565 c0 -22 2 -30 4 -17 2 12 2 30 0 40 -3 9 -5 -1 -4 -23z"/>
<path d="M1250 2551 c0 -17 4 -32 8 -35 4 -2 6 11 4 30 -5 42 -12 45 -12 5z"/>
<path d="M1315 2550 c3 -5 1 -11 -5 -15 -6 -4 -8 -11 -5 -16 4 -5 -2 -9 -11
-9 -10 0 -15 -2 -12 -5 3 -4 18 -3 34 1 24 6 26 8 9 14 -12 4 -15 9 -8 13 6 4
17 2 25 -5 15 -15 58 -20 58 -7 0 5 7 9 15 9 8 0 15 -5 15 -11 0 -13 52 -8 62
6 12 17 21 -4 20 -45 -1 -30 3 -42 17 -50 25 -13 44 -13 36 0 -3 6 -15 10 -26
10 -13 0 -19 7 -19 24 l0 24 373 -4 c207 -2 443 -11 532 -19 88 -8 228 -19
310 -25 83 -6 247 -20 365 -31 118 -10 379 -32 580 -49 318 -26 524 -50 537
-64 2 -2 -4 -11 -13 -20 -15 -16 -15 -17 10 -10 22 5 26 3 27 -17 1 -21 2 -21
10 5 4 17 6 32 4 35 -3 2 -5 -1 -5 -7 0 -6 -7 -9 -16 -5 -15 6 -15 8 2 20 10
7 34 46 53 86 l36 72 70 3 c73 3 102 15 75 32 -24 15 -36 11 -14 -5 17 -13 12
-14 -59 -15 -75 0 -78 -1 -96 -30 -16 -27 -20 -29 -31 -15 -7 8 -17 15 -23 15
-5 0 0 -9 13 -20 20 -18 21 -23 10 -49 -6 -16 -17 -28 -23 -26 -7 3 -28 0 -47
-4 -23 -6 -27 -9 -13 -10 32 -1 54 -12 47 -22 -3 -5 -9 -7 -14 -4 -26 16 -212
38 -540 65 -201 17 -462 39 -580 49 -118 11 -282 25 -365 31 -82 6 -222 17
-310 25 -88 8 -308 17 -490 20 -181 3 -339 5 -350 5 -11 1 -23 6 -27 13 -6 9
-8 9 -8 0 0 -7 -7 -13 -15 -13 -8 0 -15 6 -15 13 0 9 51 11 227 10 126 -2 644
-4 1153 -5 509 -1 1056 -5 1215 -8 216 -4 304 -3 345 7 l55 12 -50 -7 c-62 -8
-40 -8 -625 1 -630 9 -2360 11 -2382 2 -11 -4 -18 -3 -18 5 0 8 -12 10 -37 6
-25 -4 -48 -1 -66 8 -15 9 -25 11 -22 6z"/>
<path d="M1150 2510 c9 -30 28 -273 33 -410 3 -64 3 -60 5 25 3 149 -22 415
-38 415 -5 0 -5 -13 0 -30z"/>
<path d="M1928 2503 c12 -2 30 -2 40 0 9 3 -1 5 -23 4 -22 0 -30 -2 -17 -4z"/>
<path d="M2540 2499 c0 -4 -15 -9 -32 -11 -18 -2 30 -4 107 -5 77 -1 148 1
157 5 10 4 -35 5 -98 3 -72 -2 -114 0 -111 6 3 5 0 10 -8 10 -8 0 -15 -4 -15
-8z"/>
<path d="M1420 2488 c0 -6 3 -8 7 -5 3 4 11 2 18 -3 8 -7 12 -5 12 5 0 8 -9
15 -19 15 -10 0 -18 -5 -18 -12z"/>
<path d="M2896 2489 c11 -3 37 -3 59 1 37 7 35 7 -19 7 -34 0 -51 -4 -40 -8z"/>
<path d="M3031 2496 c2 -2 18 -6 34 -10 22 -5 26 -4 15 4 -14 9 -59 15 -49 6z"/>
<path d="M3188 2489 c7 -7 31 -15 55 -16 23 -2 85 -7 137 -12 290 -29 434 -41
463 -40 17 1 -53 10 -158 20 -104 10 -237 23 -295 29 -58 5 -123 11 -145 13
-22 1 -47 6 -55 11 -12 7 -13 6 -2 -5z"/>
<path d="M3310 2497 c8 -7 190 -15 194 -8 2 3 -42 8 -97 9 -56 2 -100 2 -97
-1z"/>
<path d="M3543 2488 c7 -5 2 -8 -13 -9 l-25 -1 25 -8 c14 -4 61 -8 105 -7 l80
1 -85 5 -85 6 95 7 c53 4 128 5 166 1 39 -3 74 -2 77 3 3 5 -73 9 -173 9 -98
0 -173 -3 -167 -7z"/>
<path d="M2800 2480 c-30 -7 -26 -8 21 -6 32 0 55 4 52 9 -5 8 -24 7 -73 -3z"/>
<path d="M3949 2472 c-24 -7 -56 -13 -71 -14 -16 -1 -28 -6 -28 -11 0 -6 3 -7
7 -4 3 4 15 -1 26 -10 11 -10 17 -13 14 -6 -4 6 -3 14 2 18 6 3 15 -4 21 -15
6 -11 16 -20 23 -20 8 0 7 4 -3 11 -11 7 -1 8 33 3 33 -4 47 -3 47 5 0 7 -4 9
-10 6 -5 -3 -10 -1 -10 6 0 17 88 5 109 -15 15 -16 14 -16 -12 -7 -16 6 -26 7
-22 2 3 -5 -7 -12 -22 -14 -17 -2 -9 -4 17 -4 25 0 58 -3 75 -7 25 -6 33 -3
52 21 13 15 23 23 23 17 0 -7 -8 -22 -18 -34 -18 -22 -19 -23 -153 -11 -442
40 -569 48 -516 34 9 -2 17 -10 17 -16 0 -8 3 -8 8 1 9 13 101 7 491 -29 129
-12 154 -9 167 22 9 19 11 20 23 5 11 -13 11 -16 -1 -16 -8 0 -15 -7 -15 -15
0 -13 3 -13 18 1 17 15 16 44 -1 44 -4 0 -10 8 -12 18 -4 12 -16 18 -42 20
-20 2 -36 -1 -36 -6 0 -5 11 -7 25 -4 28 5 31 -4 11 -30 -14 -19 -42 -26 -31
-8 3 6 -6 15 -22 21 -26 10 -27 12 -8 20 14 6 8 7 -17 3 -25 -4 -38 -2 -38 5
0 7 37 11 113 12 61 1 115 1 120 0 4 0 7 2 7 7 0 13 -314 8 -361 -6z m61 -13
c-30 -3 -47 -6 -37 -7 9 -1 17 -7 17 -12 0 -7 -6 -7 -19 -1 -10 6 -21 8 -24 5
-3 -3 -11 -3 -18 2 -19 11 59 30 101 24 32 -4 30 -5 -20 -11z"/>
<path d="M2870 2460 c-15 -5 4 -6 45 -3 39 3 72 7 74 9 8 7 -94 2 -119 -6z"/>
<path d="M3763 2463 c15 -2 37 -2 50 0 12 2 0 4 -28 4 -27 0 -38 -2 -22 -4z"/>
<path d="M2995 2451 c-11 -5 10 -6 50 -3 39 2 72 6 74 8 8 8 -105 2 -124 -5z"/>
<path d="M3152 2448 c-30 -5 -52 -12 -49 -14 2 -2 42 2 88 10 46 8 68 14 49
14 -19 0 -59 -5 -88 -10z"/>
<path d="M4490 2415 c0 -27 3 -46 6 -42 3 3 6 22 6 42 0 20 -3 39 -6 42 -3 4
-6 -15 -6 -42z"/>
<path d="M3310 2441 c8 -6 18 -7 24 -4 5 4 7 -1 3 -10 -5 -13 -1 -17 16 -16
12 0 16 3 10 6 -23 9 -13 22 20 26 18 2 6 4 -28 5 -40 1 -55 -1 -45 -7z"/>
<path d="M3225 2430 c-28 -7 -28 -8 -5 -9 14 0 32 4 40 9 17 11 8 11 -35 0z"/>
<path d="M3458 2433 c12 -2 30 -2 40 0 9 3 -1 5 -23 4 -22 0 -30 -2 -17 -4z"/>
<path d="M4375 2073 c-65 -159 -122 -293 -126 -299 -14 -17 -242 -10 -584 19
-497 42 -549 46 -775 62 -118 9 -318 24 -445 35 -367 30 -750 59 -1085 81
-155 11 -177 14 -191 32 -16 20 -17 20 -33 -5 -9 -14 -14 -32 -11 -41 8 -19
28 -24 135 -32 116 -9 132 -12 142 -27 16 -26 7 -36 -40 -42 -33 -4 -56 -14
-72 -31 -22 -23 -22 -27 -10 -65 15 -46 29 -61 91 -93 46 -25 50 -37 35 -97
-6 -21 -5 -20 9 5 l15 30 -5 -30 -4 -30 13 30 c12 25 14 26 18 10 4 -19 4 -19
10 1 4 16 1 21 -11 19 -9 -1 -18 7 -21 19 -3 12 -21 30 -39 41 -52 31 -99 79
-107 109 -8 32 18 66 50 65 21 0 21 0 1 -9 -12 -4 -27 -15 -34 -24 -11 -13
-11 -20 3 -41 9 -13 29 -31 44 -39 15 -8 47 -35 70 -60 23 -25 42 -41 42 -37
0 17 -52 71 -99 103 -45 31 -61 46 -61 60 0 12 57 38 83 38 22 0 26 -7 41 -69
9 -38 26 -88 37 -110 11 -23 19 -47 17 -54 -1 -7 3 -22 10 -34 14 -25 7 -28
-133 -62 -101 -24 -115 -30 -115 -47 0 -11 4 -10 19 2 15 14 200 70 248 76 8
1 8 7 -3 22 -8 11 -14 29 -14 40 0 11 -8 38 -18 60 -30 66 -42 108 -51 185 -5
40 -11 74 -13 76 -6 6 -58 13 -155 20 -102 8 -136 22 -114 49 12 14 16 14 30
3 11 -9 72 -18 191 -26 341 -22 720 -51 1085 -81 127 -11 327 -26 445 -35 118
-8 269 -20 335 -25 66 -6 264 -21 440 -35 176 -14 329 -27 340 -29 22 -6 122
-7 200 -3 l50 3 52 125 c28 68 82 199 119 291 37 92 70 165 74 163 4 -2 7 2 7
10 0 8 -3 15 -7 15 -4 0 -60 -129 -125 -287z m-2977 -230 c-10 -2 -26 -2 -35
0 -10 3 -2 5 17 5 19 0 27 -2 18 -5z"/>
<path d="M4246 2164 c-3 -9 -7 -30 -7 -47 l-2 -32 -7 35 c-7 32 -7 30 -5 -11
4 -45 -5 -72 -21 -69 -5 1 -10 -4 -13 -11 -2 -7 1 -9 8 -5 6 4 18 0 27 -9 9
-9 18 -14 21 -12 4 4 11 177 7 177 -1 0 -5 -7 -8 -16z m-2 -113 c-4 -17 -9
-30 -11 -27 -3 2 -2 19 2 36 9 41 17 33 9 -9z"/>
<path d="M4598 1969 c-27 -15 -22 -29 10 -28 l27 1 -25 8 c-17 5 -19 8 -7 9 9
1 17 6 17 11 0 12 0 12 -22 -1z"/>
<path d="M1640 1913 c25 -2 131 -10 235 -18 105 -9 258 -20 340 -26 83 -5 217
-16 299 -24 146 -15 274 -20 265 -10 -3 2 -63 7 -134 10 -70 3 -132 8 -135 10
-4 2 -40 7 -81 9 -271 19 -385 27 -549 41 -102 8 -207 14 -235 13 l-50 -1 45
-4z"/>
<path d="M1620 1879 c-22 -8 -21 -8 8 -4 20 3 31 1 27 -5 -3 -6 1 -10 9 -10 9
0 16 -5 16 -11 0 -7 -13 -9 -37 -5 -27 4 -32 3 -18 -4 11 -5 30 -9 43 -9 22
-1 30 -15 13 -25 -5 -4 -12 0 -14 6 -4 9 -6 10 -6 1 -1 -19 20 -27 30 -12 6
10 9 11 9 2 0 -7 7 -13 16 -13 12 0 14 7 9 31 -7 29 -6 30 14 20 12 -7 18 -17
15 -26 -5 -12 3 -14 44 -11 27 2 58 9 68 15 24 13 18 14 -25 1 -28 -8 -38 -6
-53 6 -9 9 -15 21 -12 25 3 5 0 9 -5 9 -6 0 -11 -6 -11 -12 -1 -7 -9 -3 -19 8
-12 16 -25 20 -43 17 -14 -3 -29 0 -32 6 -8 12 -11 12 -46 0z m96 -44 l0 -36
-14 27 c-13 24 -9 37 14 44 0 0 0 -16 0 -35z"/>
<path d="M1780 1874 c19 -2 59 -7 88 -10 29 -3 50 -9 47 -14 -3 -5 -13 -6 -23
-3 -9 3 -14 3 -10 -2 14 -15 114 -15 178 -1 l65 15 -55 0 c-30 0 -77 3 -105 6
-27 3 -88 7 -135 9 -47 2 -69 2 -50 0z m236 -27 c4 -4 -14 -7 -39 -7 -26 0
-47 4 -47 8 0 11 76 10 86 -1z"/>
<path d="M4670 1865 c0 -8 -3 -15 -7 -15 -5 0 -10 -54 -11 -120 -2 -66 0 -120
5 -120 4 0 7 37 5 82 -2 49 3 105 11 136 8 28 10 52 6 52 -5 0 -9 -7 -9 -15z"/>
<path d="M1806 1849 c3 -5 19 -9 36 -9 17 0 28 3 25 6 -10 11 -67 13 -61 3z"/>
<path d="M2120 1844 l-45 -14 40 4 c48 4 96 -6 78 -17 -7 -5 -41 -8 -75 -9
-50 0 -57 -2 -35 -9 16 -4 35 -5 43 -2 9 3 14 -2 14 -17 0 -19 -2 -21 -16 -9
-12 10 -17 10 -23 1 -5 -8 -19 -10 -42 -5 l-34 7 35 8 35 7 -35 -4 c-19 -2
-56 -8 -82 -13 -26 -5 -45 -5 -42 0 3 4 17 8 32 8 37 0 61 16 36 23 -54 15
-94 16 -122 4 l-31 -13 32 -12 c27 -10 29 -9 14 2 -15 12 -16 14 -2 20 8 3 37
2 63 -1 l47 -7 -35 -6 c-19 -3 -42 -1 -50 4 -13 10 -13 9 -1 -6 11 -15 11 -18
0 -22 -40 -13 -42 -14 -19 -15 14 0 47 4 75 8 34 6 64 4 92 -4 38 -11 43 -11
43 2 0 12 3 13 13 4 16 -13 27 -5 27 21 0 11 7 18 19 18 11 0 23 5 26 10 3 6
20 10 37 10 27 0 29 -2 17 -17 -12 -15 -12 -16 1 -8 8 6 65 10 125 10 61 1
115 4 120 7 6 3 100 -3 210 -13 110 -11 211 -18 225 -16 14 2 3 5 -25 7 l-50
2 60 9 c38 6 74 6 100 -1 26 -6 66 -6 115 0 l75 9 -78 -4 c-42 -2 -92 1 -110
6 -21 6 -66 5 -127 -2 -76 -9 -123 -8 -239 5 -80 8 -149 12 -154 9 -21 -13
-159 -11 -247 4 -72 13 -89 18 -70 24 19 5 20 7 5 7 -11 0 -40 -7 -65 -14z"/>
<path d="M2318 1833 c17 -2 47 -2 65 0 17 2 3 4 -33 4 -36 0 -50 -2 -32 -4z"/>
<path d="M2838 1823 c12 -2 32 -2 45 0 12 2 2 4 -23 4 -25 0 -35 -2 -22 -4z"/>
<path d="M1760 1785 c0 -2 12 -12 28 -20 22 -13 23 -15 5 -12 -19 4 -20 2 -11
-13 10 -16 13 -16 27 -3 13 14 13 18 -8 34 -22 18 -41 25 -41 14z"/>
<path d="M2727 1778 c2 -5 -17 -8 -44 -9 -26 0 -104 -5 -173 -10 -69 -5 -159
-11 -200 -13 -41 -3 -100 -8 -130 -12 -30 -4 -59 -7 -63 -6 -4 1 -58 -3 -120
-8 -62 -6 -146 -11 -187 -11 -42 0 -89 -3 -105 -8 -38 -10 139 -4 292 9 62 6
116 9 120 8 4 -1 33 2 63 6 30 4 89 9 130 12 131 7 362 24 455 32 l90 8 -67 5
c-36 2 -64 1 -61 -3z"/>
<path d="M2175 1760 c11 -5 27 -9 35 -9 9 0 8 4 -5 9 -11 5 -27 9 -35 9 -9 0
-8 -4 5 -9z"/>
<path d="M1973 1743 c15 -2 37 -2 50 0 12 2 0 4 -28 4 -27 0 -38 -2 -22 -4z"/>
<path d="M4168 1733 c-10 -2 -18 -9 -18 -14 0 -6 8 -5 20 1 11 6 25 8 30 5 6
-3 10 -1 10 4 0 11 -11 12 -42 4z"/>
<path d="M1715 1610 c-10 -17 -15 -101 -5 -95 5 3 7 12 4 19 -3 8 -1 30 4 50
10 36 9 45 -3 26z"/>
<path d="M4663 1553 c3 -26 10 -49 16 -51 18 -6 13 -42 -6 -42 -15 0 -15 -2
-4 -9 11 -7 11 -10 -3 -14 -14 -4 -14 -5 1 -3 11 0 22 14 27 33 8 26 17 34 53
44 62 17 58 41 -13 68 -31 11 -60 21 -66 21 -7 0 -9 -18 -5 -47z m68 16 c27
-12 49 -25 49 -29 0 -9 -55 -30 -80 -30 -20 0 -30 19 -30 56 0 29 -1 29 61 3z"/>
<path d="M1520 1510 c0 -8 -9 -10 -26 -6 -18 5 -24 3 -18 -5 5 -8 -1 -10 -19
-7 -16 3 -24 1 -20 -5 4 -6 -3 -8 -17 -4 -15 4 -19 2 -13 -4 6 -6 26 -6 57 1
26 6 52 7 58 4 6 -4 8 -2 4 4 -3 5 -1 12 6 14 9 3 9 6 0 12 -7 4 -12 2 -12 -4z"/>
<path d="M1297 1449 c-11 -15 -16 -17 -20 -7 -3 7 -6 2 -6 -12 0 -14 -4 -69
-9 -122 -12 -117 -10 -157 14 -231 17 -55 13 -86 -7 -57 -9 13 -10 13 -7 0 3
-8 15 -17 29 -21 21 -6 22 -7 6 -14 -59 -25 -95 151 -75 365 7 69 6 68 -8 -20
-16 -104 -14 -162 9 -257 20 -85 48 -118 158 -184 52 -32 200 -121 329 -199
129 -78 242 -145 250 -148 8 -3 33 -17 55 -32 79 -52 381 -220 395 -220 8 0 4
6 -10 13 -50 26 -366 210 -390 227 -14 9 -32 19 -40 22 -8 3 -121 70 -250 148
-129 78 -260 157 -290 175 -129 75 -149 91 -131 102 10 6 25 7 41 1 47 -17
239 -132 234 -140 -3 -4 3 -5 13 -1 16 6 17 5 3 -13 -14 -17 -14 -18 1 -6 14
10 23 9 53 -9 36 -21 40 -39 8 -39 -15 0 34 -33 138 -92 l35 -20 -30 26 c-16
14 -33 26 -38 26 -4 0 -26 12 -48 26 -28 17 -38 29 -31 36 8 8 216 -109 536
-302 18 -11 24 -20 17 -24 -11 -7 -104 40 -185 94 -22 15 -51 31 -64 34 -12 4
-19 12 -16 18 5 7 2 8 -6 3 -10 -6 -9 -11 5 -22 11 -7 23 -13 29 -13 5 0 17
-6 25 -14 17 -15 263 -157 296 -171 28 -12 39 -12 46 -2 4 5 19 2 35 -6 16 -8
47 -17 69 -20 24 -4 32 -3 21 2 -19 7 -18 8 5 14 35 10 46 8 29 -3 -11 -8 -7
-9 15 -4 46 10 67 26 25 19 -34 -5 332 128 790 288 69 24 256 90 415 147 160
57 333 118 385 137 52 18 111 40 130 47 19 8 76 29 125 47 50 17 129 47 177
67 79 31 90 33 118 22 25 -11 29 -15 18 -25 -7 -7 -26 -17 -43 -23 -16 -6 -84
-30 -150 -55 -280 -103 -1204 -432 -1300 -463 -38 -12 -128 -43 -200 -69 -276
-99 -568 -194 -578 -188 -6 3 -7 1 -3 -5 4 -7 2 -12 -5 -12 -7 0 -9 -3 -6 -7
4 -3 17 -1 30 5 12 7 114 43 227 81 113 38 264 90 335 116 72 26 168 59 215
74 47 16 265 92 485 171 577 205 656 234 795 285 69 26 144 53 167 62 49 17
59 28 43 48 -29 35 -65 29 -215 -34 -11 -5 -60 -23 -110 -41 -49 -17 -106 -38
-125 -46 -19 -7 -84 -31 -145 -53 -60 -21 -234 -82 -385 -136 -151 -54 -331
-118 -400 -142 -69 -24 -174 -61 -235 -83 -350 -124 -595 -209 -633 -220 -42
-11 -46 -10 -125 34 -180 100 -402 234 -402 244 0 6 -4 14 -9 19 -5 5 -6 3 -2
-4 4 -7 4 -13 0 -13 -17 0 -213 123 -209 130 3 5 0 12 -6 16 -8 4 -9 3 -5 -4
4 -7 5 -12 2 -12 -4 0 -84 45 -179 100 -94 56 -184 103 -199 107 -20 4 -28 12
-28 27 0 11 -3 32 -7 45 -5 19 -3 23 8 19 39 -16 51 -18 26 -3 -15 9 -31 14
-35 11 -15 -9 -23 263 -8 304 7 20 6 23 -4 13 -17 -16 -24 -143 -12 -217 5
-32 6 -71 2 -85 l-7 -26 -7 30 c-15 67 -15 79 -3 87 8 5 9 8 0 8 -18 0 0 182
23 228 20 40 29 40 54 0 20 -33 20 -33 18 -6 -1 15 -5 25 -9 22 -4 -2 -12 3
-19 11 -17 20 -26 19 -43 -6z m11 -424 c0 -16 -2 -15 -8 5 -11 34 -11 60 0 35
5 -11 8 -29 8 -40z m994 -606 c66 -39 69 -41 38 -36 -54 11 -113 43 -104 58 7
12 7 13 66 -22z"/>
<path d="M1360 1467 c3 -3 23 -10 44 -16 22 -5 35 -6 30 -2 -9 9 -83 27 -74
18z"/>
<path d="M1554 1462 c4 -7 4 -21 1 -33 -7 -20 -7 -20 -22 -2 -16 20 -14 10 11
-49 9 -20 12 -39 8 -42 -5 -3 -33 7 -63 21 -30 14 -48 27 -41 30 17 6 15 20
-3 20 -8 0 -12 -4 -9 -9 3 -4 0 -8 -6 -8 -20 0 -2 -15 47 -39 26 -13 68 -38
93 -55 44 -30 91 -46 89 -29 0 4 -5 17 -10 28 -9 19 -9 18 -5 -2 7 -38 -26
-24 -39 16 -6 20 -4 23 9 18 9 -4 16 -2 16 3 0 6 -4 10 -9 10 -5 0 -17 18 -27
40 -10 22 -19 38 -21 36 -2 -2 2 -16 9 -32 6 -16 13 -43 13 -61 2 -31 2 -32
-21 -15 -12 10 -19 21 -14 26 5 5 5 19 0 32 -6 14 -5 35 2 54 8 24 7 34 -2 43
-10 9 -11 9 -6 -1z"/>
<path d="M1243 1402 c0 -9 -4 -66 -8 -127 -5 -85 -3 -125 9 -175 8 -36 13 -49
11 -30 -13 99 -16 193 -7 260 5 41 7 78 3 82 -4 4 -7 0 -8 -10z"/>
<path d="M1320 1402 c0 -4 24 -20 53 -36 28 -15 79 -41 112 -59 33 -17 66 -37
73 -44 6 -6 21 -15 32 -18 14 -4 40 -45 76 -117 30 -60 57 -108 60 -105 3 3
-20 54 -50 114 -44 86 -62 112 -88 126 -18 10 -60 33 -93 52 -114 65 -175 95
-175 87z"/>
<path d="M4431 1389 c-35 -4 -66 -11 -70 -14 -5 -6 31 -3 154 14 46 7 50 9 20
9 -22 -1 -69 -4 -104 -9z"/>
<path d="M4380 1361 c-24 -7 -24 -8 7 -12 18 -3 30 -2 27 2 -2 4 15 10 38 12
l43 4 -45 0 c-25 1 -56 -2 -70 -6z"/>
<path d="M4650 1320 c34 -11 60 -11 35 0 -11 5 -29 8 -40 8 -16 0 -15 -2 5 -8z"/>
<path d="M4564 1311 c3 -5 15 -7 26 -4 28 7 25 13 -6 13 -14 0 -23 -4 -20 -9z"/>
<path d="M4389 1289 c-10 -6 -7 -9 14 -9 29 0 35 5 14 13 -8 3 -20 1 -28 -4z"/>
<path d="M4289 1277 c5 -5 19 -7 32 -5 20 3 19 5 -9 9 -20 3 -29 2 -23 -4z"/>
<path d="M4203 1263 c9 -2 25 -2 35 0 9 3 1 5 -18 5 -19 0 -27 -2 -17 -5z"/>
<path d="M4005 1249 c-15 -6 -11 -8 18 -8 20 -1 37 1 37 3 0 9 -37 12 -55 5z"/>
<path d="M3890 1239 c0 -5 14 -9 32 -9 37 0 34 7 -5 14 -15 2 -27 0 -27 -5z"/>
<path d="M3788 1223 c12 -2 32 -2 45 0 12 2 2 4 -23 4 -25 0 -35 -2 -22 -4z"/>
<path d="M4277 1223 c-12 -12 -7 -23 11 -24 12 0 10 -3 -7 -10 -13 -5 -33 -7
-45 -4 -17 5 -18 4 -6 -5 12 -9 9 -10 -15 -6 -19 4 -25 3 -16 -2 9 -7 -1 -10
-30 -11 -93 -3 -93 -2 -78 -12 11 -7 10 -9 -6 -10 l-20 0 20 -9 c30 -13 -6
-13 -40 0 -18 7 -24 7 -20 0 4 -7 -3 -9 -22 -5 -23 4 -24 4 -8 -4 19 -9 18
-10 -5 -12 -99 -8 -97 -8 -80 -19 13 -8 12 -10 -4 -10 -11 0 -16 -3 -13 -6 4
-4 27 1 52 10 25 10 55 15 67 11 16 -4 19 -3 10 3 -11 7 -10 10 3 16 26 10 42
7 25 -4 -18 -13 36 -2 60 11 13 7 13 8 0 9 -13 0 -13 1 0 10 8 5 22 10 30 10
13 0 13 -1 0 -10 -25 -16 -6 -11 101 25 57 19 105 35 107 35 2 0 0 5 -4 11 -4
8 -8 8 -13 0 -4 -5 -17 -8 -29 -4 -12 3 -19 9 -16 14 6 11 0 12 -9 2z"/>
<path d="M3488 1198 c-8 -4 4 -8 30 -8 23 0 42 2 42 4 0 8 -60 12 -72 4z"/>
<path d="M3588 1203 c12 -2 32 -2 45 0 12 2 2 4 -23 4 -25 0 -35 -2 -22 -4z"/>
<path d="M1673 1193 c11 -3 16 -11 13 -19 -3 -9 1 -14 12 -14 15 0 15 -2 2
-10 -8 -5 -10 -10 -4 -10 20 0 23 12 7 36 -8 13 -23 23 -32 23 -13 -1 -12 -2
2 -6z"/>
<path d="M3347 1171 c3 -11 -10 -13 -68 -8 -73 6 -177 -3 -703 -63 -148 -17
-275 -29 -283 -26 -7 3 -13 1 -13 -4 0 -5 -19 -11 -42 -13 -24 -2 -16 -3 17
-1 33 2 141 13 240 24 99 12 192 20 207 17 15 -2 25 0 23 3 -7 11 494 60 550
54 28 -3 70 -1 95 4 39 9 41 10 13 11 -17 1 -33 4 -36 9 -2 4 -2 1 0 -7z"/>
<path d="M3393 1183 c15 -2 37 -2 50 0 12 2 0 4 -28 4 -27 0 -38 -2 -22 -4z"/>
<path d="M3765 1166 c-22 -6 -44 -14 -50 -17 -22 -14 -91 -32 -120 -31 -25 0
-27 -1 -10 -8 17 -7 15 -9 -11 -9 -17 -1 -37 -8 -44 -16 -9 -10 -25 -13 -54
-10 -40 5 -40 4 -6 -4 35 -10 119 -6 129 5 3 4 -9 4 -27 1 -21 -4 -31 -3 -27
3 3 6 14 10 23 10 9 0 41 9 71 21 30 11 63 18 72 16 12 -3 16 0 12 9 -3 9 3
14 18 15 13 0 40 7 59 14 42 16 21 17 -35 1z"/>
<path d="M3435 1124 c-22 -8 -45 -12 -53 -9 -7 2 -11 1 -8 -3 5 -8 -87 -38
-404 -131 -96 -28 -259 -79 -361 -113 l-186 -61 -22 20 c-13 12 -50 35 -84 52
-34 17 -87 45 -117 63 -30 18 -49 25 -42 16 7 -9 9 -18 5 -20 -4 -3 -2 -3 5
-1 22 5 36 -8 21 -19 -11 -8 -10 -9 4 -4 18 6 148 -58 201 -98 l30 -22 75 26
c42 15 83 30 91 33 34 14 378 119 497 153 153 43 424 132 403 132 -8 1 -33 -6
-55 -14z"/>
<path d="M2965 1071 c-11 -5 -42 -11 -70 -13 -27 -3 -51 -10 -53 -17 -2 -6
-11 -11 -19 -11 -9 0 -13 -3 -10 -6 3 -4 22 1 41 10 19 9 47 16 63 17 33 1
117 27 88 27 -11 1 -29 -3 -40 -7z"/>
<path d="M4520 1065 c-17 -10 -20 -14 -9 -15 9 0 22 7 29 15 15 18 12 18 -20
0z"/>
<path d="M2143 1042 c-6 -4 7 -8 30 -8 30 -1 36 1 22 7 -26 10 -37 10 -52 1z"/>
<path d="M1740 1031 c0 -5 -3 -16 -6 -24 -8 -23 21 -25 156 -10 69 7 153 10
188 7 64 -7 162 -45 162 -65 0 -5 5 -7 12 -3 6 4 16 1 22 -7 6 -8 18 -14 26
-14 8 0 14 -5 13 -10 -2 -11 44 -13 52 -2 3 4 2 5 -1 3 -4 -3 -54 19 -113 48
-128 65 -180 72 -361 53 -69 -8 -130 -12 -136 -10 -7 2 -10 13 -7 24 3 10 3
19 -1 19 -3 0 -6 -4 -6 -9z"/>
<path d="M1770 1018 c0 -11 32 -10 48 1 9 5 3 8 -17 7 -17 -1 -31 -4 -31 -8z"/>
<path d="M4385 1005 c-39 -17 -21 -18 25 0 19 7 28 14 20 14 -8 0 -28 -6 -45
-14z"/>
<path d="M4320 983 c-14 -7 -18 -13 -10 -13 17 0 47 17 40 23 -3 2 -16 -2 -30
-10z"/>
<path d="M1952 983 c-16 -6 -5 -23 16 -23 9 0 39 -12 67 -25 27 -13 51 -23 53
-21 5 5 -100 56 -116 56 -7 0 -10 5 -7 10 7 11 6 11 -13 3z"/>
<path d="M2825 976 c-26 -11 -27 -13 -10 -20 11 -4 16 -4 12 1 -5 4 9 13 30
19 21 7 29 12 18 13 -11 0 -33 -6 -50 -13z"/>
<path d="M4250 959 c-19 -10 -42 -19 -52 -19 -9 0 -20 -4 -23 -10 -9 -14 -4
-13 60 11 30 11 55 25 55 30 0 11 2 12 -40 -12z"/>
<path d="M1340 956 c0 -3 15 -15 33 -27 23 -17 28 -18 18 -6 -14 18 -51 42
-51 33z"/>
<path d="M2700 939 c-36 -11 -103 -31 -150 -45 -47 -14 -92 -28 -100 -31 -8
-3 -21 -5 -27 -4 -7 1 -13 -3 -13 -9 0 -5 8 -10 18 -10 15 0 15 -2 2 -11 -12
-9 -11 -10 5 -4 11 4 35 11 53 17 17 5 32 11 32 14 0 3 -9 3 -20 0 -58 -17
-65 -18 -55 -9 11 11 85 33 106 32 8 0 5 -4 -6 -9 -13 -6 -15 -9 -5 -9 8 0 22
4 30 9 12 8 12 10 1 10 -8 0 -12 2 -10 5 9 8 182 56 210 58 15 1 25 5 22 10
-6 10 -20 8 -93 -14z"/>
<path d="M1972 930 c8 -13 20 -19 32 -16 20 5 66 -20 66 -36 0 -5 -10 -3 -22
4 -29 16 -71 20 -62 7 3 -6 12 -8 18 -6 7 3 26 -5 42 -19 16 -13 35 -23 43
-24 11 0 9 4 -4 14 -18 13 -17 15 18 37 20 13 37 28 37 32 0 5 -13 -1 -28 -12
-28 -20 -29 -20 -58 -1 -16 11 -36 17 -45 15 -10 -3 -19 1 -23 10 -3 8 -10 15
-16 15 -6 0 -5 -8 2 -20z"/>
<path d="M3710 771 c-8 -6 -17 -8 -21 -5 -4 2 -10 0 -14 -5 -7 -13 35 -5 49 9
12 12 6 13 -14 1z"/>
<path d="M3548 717 c-37 -12 -70 -25 -74 -30 -4 -4 15 0 42 9 27 9 59 18 72
21 12 3 25 9 28 14 3 5 4 9 2 8 -2 0 -33 -10 -70 -22z"/>
<path d="M3370 653 c-32 -12 -32 -13 -5 -7 17 3 35 7 42 8 7 1 15 4 18 7 9 10
-20 6 -55 -8z"/>
<path d="M1850 647 c9 -10 81 -57 86 -57 15 0 -12 23 -49 41 -23 12 -40 19
-37 16z"/>
<path d="M3117 568 c-32 -11 -57 -22 -55 -24 6 -5 101 25 112 36 12 12 13 13
-57 -12z"/>
<path d="M2375 350 c3 -5 13 -10 22 -10 9 0 13 -6 9 -15 -3 -9 0 -15 9 -15 19
0 8 28 -16 40 -23 13 -32 13 -24 0z"/>
</g>
</svg>
