<?xml version="1.0" standalone="no"?>
<!DOCTYPE svg PUBLIC "-//W3C//DTD SVG 20010904//EN"
 "http://www.w3.org/TR/2001/REC-SVG-20010904/DTD/svg10.dtd">
<svg version="1.0" xmlns="http://www.w3.org/2000/svg"
 width="180.000000pt" height="40.000000pt" viewBox="0 0 180.000000 40.000000"
 preserveAspectRatio="xMidYMid meet">

<g transform="translate(0.000000,40.000000) scale(0.100000,-0.100000)"
fill="#000000" stroke="none">
<path d="M57 283 c-12 -11 -8 -23 9 -23 10 0 14 -6 10 -17 -3 -10 -8 -30 -11
-45 -4 -14 -16 -28 -27 -31 -11 -3 -17 -10 -13 -16 9 -15 40 -14 53 2 8 10 42
115 42 131 0 8 -55 8 -63 -1z"/>
<path d="M135 259 c-9 -17 -15 -48 -13 -72 2 -34 7 -43 24 -45 30 -4 56 31 62
84 3 33 1 49 -9 55 -26 16 -48 9 -64 -22z m45 -27 c0 -10 -7 -27 -15 -38 -14
-19 -14 -19 -15 3 0 28 10 53 21 53 5 0 9 -8 9 -18z"/>
<path d="M299 262 c-12 -36 -36 -43 -35 -11 1 12 -4 24 -11 26 -11 4 -44 -114
-36 -130 7 -12 23 3 33 29 12 32 34 31 28 0 -7 -34 7 -54 20 -30 18 35 33 127
22 138 -6 6 -13 -1 -21 -22z"/>
<path d="M367 283 c-13 -21 -39 -134 -33 -141 10 -9 36 27 36 50 0 23 20 24
20 1 0 -10 7 -27 15 -37 14 -18 15 -18 30 16 23 56 31 122 14 116 -7 -2 -17
-20 -22 -39 l-10 -34 -11 34 c-12 34 -30 50 -39 34z"/>
<path d="M497 283 c-13 -21 -39 -134 -33 -141 10 -9 36 27 36 50 0 23 20 24
20 1 0 -10 7 -27 15 -37 14 -18 15 -18 30 17 8 20 15 44 16 54 0 12 4 8 11 -9
5 -16 17 -28 25 -28 11 0 14 -7 9 -24 -7 -28 7 -42 22 -23 14 18 35 115 28
132 -7 18 -26 20 -26 2 0 -7 -7 -22 -15 -33 -12 -15 -14 -15 -9 -2 10 28 -7
44 -23 23 -12 -18 -13 -18 -13 4 0 34 -23 20 -33 -20 l-10 -34 -11 34 c-12 34
-30 50 -39 34z"/>
<path d="M767 279 c-12 -7 -16 -17 -12 -29 3 -11 1 -36 -4 -57 -11 -39 2 -73
15 -40 3 9 14 17 24 17 31 0 69 61 52 86 -6 10 -46 34 -54 34 -2 0 -11 -5 -21
-11z m34 -72 c-8 -8 -11 -5 -11 9 0 27 14 41 18 19 2 -9 -1 -22 -7 -28z"/>
<path d="M897 278 c-10 -7 -19 -24 -22 -38 -2 -14 -10 -35 -16 -47 -26 -49 26
-73 72 -33 l24 20 -32 -5 c-38 -6 -43 4 -11 24 21 13 21 14 4 26 -17 13 -16
15 8 30 25 17 27 35 2 35 -7 0 -20 -6 -29 -12z"/>
<path d="M976 275 c-4 -10 1 -15 14 -15 26 0 25 -4 -5 -48 -36 -53 -33 -72 9
-72 40 0 56 17 27 28 -20 7 -20 8 9 52 22 33 26 47 18 57 -14 18 -65 16 -72
-2z"/>
<path d="M1087 283 c-13 -12 -7 -23 13 -23 26 0 26 -1 -10 -53 -38 -57 -38
-67 4 -67 40 0 54 14 30 28 -16 9 -14 14 14 53 24 32 29 46 21 56 -12 14 -61
18 -72 6z"/>
<path d="M1181 246 c-6 -25 -11 -59 -11 -77 0 -26 2 -29 14 -19 17 13 41 114
31 130 -12 20 -23 9 -34 -34z"/>
<path d="M1255 278 c-6 -21 -35 -121 -35 -125 0 -2 6 -3 14 -3 8 0 19 14 25
31 6 18 16 29 23 26 7 -2 21 0 31 5 16 8 17 5 11 -32 -5 -27 -3 -40 5 -40 14
0 27 33 36 92 8 55 -6 70 -39 39 -21 -20 -22 -20 -34 -1 -14 23 -31 26 -37 8z"/>
<path d="M1418 276 c-10 -7 -18 -21 -18 -30 0 -9 -7 -31 -16 -47 -8 -17 -13
-37 -10 -45 6 -17 39 -18 67 -3 15 8 24 7 35 -2 18 -15 20 -12 38 37 l13 39 7
-32 c14 -64 48 -48 61 28 5 30 11 39 23 37 13 -3 16 -12 13 -38 -7 -63 -6 -75
4 -79 6 -2 19 22 30 52 12 36 26 58 38 61 11 2 17 11 15 18 -3 9 -27 14 -70
16 l-66 3 -9 -38 c-9 -32 -11 -35 -17 -18 -25 70 -40 68 -62 -10 -10 -36 -20
-61 -22 -57 -1 5 -17 8 -34 6 l-32 -4 23 24 c20 22 21 25 6 33 -15 9 -13 12
10 27 14 9 23 21 20 26 -8 14 -27 12 -47 -4z"/>
<path d="M1721 233 c-14 -73 -14 -83 3 -83 9 0 18 19 25 50 15 67 14 90 -3 90
-8 0 -17 -21 -25 -57z"/>
</g>
</svg>
