<?xml version="1.0" standalone="no"?>
<!DOCTYPE svg PUBLIC "-//W3C//DTD SVG 20010904//EN"
 "http://www.w3.org/TR/2001/REC-SVG-20010904/DTD/svg10.dtd">
<svg version="1.0" xmlns="http://www.w3.org/2000/svg"
 width="441.614159pt" height="317.940941pt" viewBox="0 0 441.614159 317.940941"
 preserveAspectRatio="xMidYMid meet">
<metadata>
Created by potrace 1.12, written by Peter Selinger 2001-2015
</metadata>
<g transform="translate(-124.274588,372.650589) scale(0.100000,-0.100000)"
fill="#000000" stroke="none">
<path d="M2565 3625 c-693 -57 -1271 -107 -1285 -112 -61 -21 -66 30 130
-1123 99 -583 185 -1072 190 -1085 11 -29 34 -45 169 -115 104 -55 106 -56
103 -88 -3 -27 0 -32 17 -32 11 0 24 7 28 15 7 11 12 12 30 2 12 -7 178 -102
370 -212 343 -197 349 -200 413 -203 64 -4 89 1 970 163 279 52 319 58 349 51
31 -6 422 62 436 77 7 7 4 8 -8 4 -50 -18 -402 -76 -410 -68 -6 6 12 13 44 20
96 18 323 60 354 64 l30 4 -30 1 c-38 2 -387 -63 -411 -77 -11 -5 -50 -14 -89
-20 -38 -5 -158 -26 -265 -46 -734 -135 -905 -165 -957 -165 -58 0 -63 2 -412
202 -194 112 -365 211 -379 220 -36 22 -60 36 -167 93 -109 58 -163 93 -175
115 -5 9 -90 494 -190 1078 -130 767 -178 1067 -171 1080 6 10 16 24 24 30 12
10 2539 222 2646 222 75 0 62 47 246 -955 92 -500 171 -936 177 -968 6 -31 8
-63 5 -70 -3 -9 -46 -20 -117 -31 -62 -10 -122 -21 -133 -27 -32 -13 -2128
-339 -2183 -339 -54 0 -235 -29 -247 -39 -4 -4 37 1 90 10 54 10 122 18 150
19 62 0 2148 325 2213 344 25 8 87 19 138 26 81 11 93 15 98 35 3 12 -42 282
-101 601 -58 318 -138 752 -176 964 -48 265 -76 393 -88 410 -16 23 -25 25
-92 26 -41 1 -641 -44 -1334 -101z m-652 -2512 c8 -7 -11 -33 -24 -33 -4 0 -7
9 -6 20 1 20 17 27 30 13z"/>
<path d="M3090 3620 c-113 -10 -217 -19 -231 -19 -20 -1 -28 -8 -33 -25 -8
-32 -18 -35 -148 -42 -108 -7 -111 -7 -128 16 l-18 24 -154 -12 c-1017 -82
-1078 -88 -1090 -100 -12 -12 -15 4 124 -807 175 -1029 206 -1207 212 -1212 6
-6 74 4 651 92 160 25 322 50 360 55 39 6 73 14 78 19 4 4 -26 1 -65 -6 -40
-6 -192 -30 -338 -53 -146 -22 -357 -54 -469 -71 -151 -23 -205 -28 -211 -19
-4 6 -21 95 -38 198 -18 103 -63 372 -102 597 -207 1213 -203 1188 -187 1200
8 6 87 17 174 24 139 11 314 25 897 73 l148 12 18 -24 c17 -23 20 -23 131 -17
127 8 159 14 159 31 1 32 21 36 275 56 299 23 333 27 250 27 -33 0 -152 -8
-265 -17z"/>
<path d="M4155 1795 c-93 -15 -202 -32 -485 -75 -113 -17 -288 -44 -390 -60
-102 -16 -234 -36 -295 -45 -60 -9 -166 -25 -235 -36 -69 -11 -197 -31 -285
-44 -88 -14 -232 -36 -320 -50 -88 -14 -239 -37 -335 -50 -96 -14 -179 -31
-185 -37 -7 -7 -7 -9 1 -5 7 4 90 18 185 32 96 14 246 36 334 50 88 14 232 36
320 50 88 13 216 33 285 44 69 11 175 27 235 36 61 9 193 29 295 45 102 16
277 43 390 60 113 17 248 38 300 46 52 8 142 21 200 29 128 19 145 23 100 22
-19 0 -71 -5 -115 -12z"/>
<path d="M4435 1686 c28 -13 93 -40 145 -59 52 -20 183 -69 290 -110 107 -42
302 -116 432 -166 345 -132 348 -134 348 -170 0 -50 -16 -78 -52 -90 -18 -6
-116 -26 -218 -45 -102 -19 -378 -71 -615 -115 -236 -44 -662 -124 -945 -176
-651 -121 -806 -150 -957 -180 -139 -27 -150 -26 -251 33 -37 21 -251 146
-477 276 -225 131 -422 247 -438 258 -31 22 -60 71 -49 83 4 5 2 5 -5 2 -15
-9 -7 -37 20 -70 12 -14 110 -77 217 -140 653 -380 796 -460 828 -468 25 -5
71 -1 156 16 151 30 306 59 956 180 450 83 719 134 1560 291 262 49 257 47
271 92 6 21 9 51 7 67 -3 27 -10 32 -108 71 -199 78 -432 168 -820 314 -135
51 -263 101 -286 111 -22 11 -45 19 -50 19 -5 -1 14 -11 41 -24z"/>
<path d="M4334 1642 c0 -10 8 -18 18 -18 16 0 16 2 1 18 -9 10 -17 18 -17 18
-1 0 -2 -8 -2 -18z"/>
<path d="M4405 1650 l-40 -7 37 -2 c20 0 40 4 43 9 3 6 5 9 3 9 -2 -1 -21 -5
-43 -9z"/>
<path d="M4130 1619 c-97 -17 -412 -67 -525 -84 -22 -3 -80 -12 -130 -21 -49
-8 -146 -24 -215 -34 -69 -11 -181 -28 -250 -39 -69 -11 -159 -25 -200 -31
-41 -6 -111 -17 -155 -25 -44 -8 -114 -19 -155 -25 -41 -6 -100 -15 -130 -21
-109 -18 -302 -49 -311 -49 -5 0 -9 -9 -9 -20 0 -11 4 -20 10 -20 5 0 100 -50
212 -110 257 -140 267 -144 355 -126 37 8 113 22 168 31 55 9 138 23 185 30
47 8 135 24 195 35 138 25 725 124 865 146 344 53 735 125 745 136 7 8 4 9
-10 3 -25 -9 -503 -93 -735 -129 -136 -22 -724 -121 -860 -146 -58 -10 -150
-26 -205 -35 -55 -9 -134 -23 -175 -30 -41 -8 -95 -16 -120 -20 -25 -3 -55 -8
-67 -12 -16 -4 -23 -1 -23 10 0 16 -27 30 -41 21 -5 -3 -9 -10 -9 -16 0 -7 4
-7 13 1 15 12 27 5 27 -16 0 -28 -64 -1 -283 118 -120 66 -222 119 -227 119
-6 0 -10 5 -10 10 0 6 2 10 4 10 5 0 228 36 306 49 30 6 89 15 130 21 41 6
111 17 155 25 44 8 114 19 155 25 41 6 131 20 200 31 69 11 181 28 250 39 69
10 166 26 215 34 50 9 108 18 130 21 66 10 153 23 290 46 291 46 311 49 351
37 38 -10 124 -41 217 -79 26 -10 71 -28 100 -40 62 -25 99 -40 150 -63 21 -9
45 -16 55 -16 29 1 -500 208 -543 213 -22 3 -65 1 -95 -4z"/>
<path d="M4076 1571 c6 -11 0 -13 -30 -8 -22 3 -34 2 -31 -4 4 -5 23 -9 43
-10 24 0 31 -3 20 -7 -15 -6 -14 -9 7 -18 20 -10 28 -9 46 7 24 21 19 25 -12
9 -10 -6 -19 -7 -19 -2 0 4 -7 17 -16 28 -8 10 -12 13 -8 5z"/>
<path d="M4233 1563 c-24 -2 -43 -7 -43 -11 0 -4 19 -6 43 -4 31 2 38 1 27 -7
-13 -9 -12 -11 5 -11 11 0 34 -9 50 -20 29 -19 87 -20 108 0 4 4 -9 4 -30 0
-29 -5 -47 -1 -75 14 -44 24 -47 33 -15 39 20 4 20 4 -3 4 -14 0 -44 -2 -67
-4z"/>
<path d="M3885 1529 c6 -18 4 -21 -9 -16 -10 4 -20 -1 -27 -16 -9 -18 -9 -20
2 -9 7 6 20 12 29 12 13 0 13 -1 0 -10 -11 -7 -4 -9 25 -9 35 1 37 2 15 9
l-25 8 28 1 c15 1 27 -4 27 -11 0 -9 3 -10 8 -2 4 6 14 14 22 17 8 3 -7 6 -35
6 -27 1 -45 5 -38 9 9 6 6 11 -8 20 -19 12 -20 11 -14 -9z"/>
<path d="M4031 1518 c-1 -21 3 -26 15 -21 9 3 11 9 6 12 -5 3 -12 13 -15 21
-3 9 -6 4 -6 -12z"/>
<path d="M4352 1531 c-9 -5 -4 -8 16 -7 17 1 28 4 25 9 -6 9 -25 9 -41 -2z"/>
<path d="M3800 1521 c0 -9 -10 -12 -29 -9 -19 3 -27 0 -24 -7 2 -7 15 -10 29
-7 25 5 40 19 30 29 -3 4 -6 1 -6 -6z"/>
<path d="M3590 1502 c0 -6 12 -14 28 -18 45 -10 48 -12 25 -19 -22 -7 -40 -35
-23 -35 6 0 10 -4 10 -10 0 -5 -12 -10 -27 -10 -16 0 -37 -7 -47 -15 -11 -8
-15 -15 -9 -15 7 0 15 5 18 10 3 6 21 10 38 9 30 -1 30 -1 7 -8 -36 -10 -4
-19 35 -10 17 4 23 7 15 8 -23 2 -23 41 -1 41 10 0 18 7 18 15 0 8 -4 15 -9
15 -4 0 -7 3 -7 8 3 18 -3 46 -8 35 -6 -16 -35 -17 -51 -1 -9 9 -12 9 -12 0z"/>
<path d="M4180 1500 c8 -5 11 -10 5 -11 -23 -1 33 -18 64 -18 19 -1 31 -4 27
-8 -4 -4 -26 -6 -51 -4 -35 2 -46 -1 -55 -18 -9 -18 -8 -21 12 -20 13 0 17 3
11 6 -29 11 -10 24 32 22 43 -3 77 13 61 28 -3 4 -22 6 -41 5 -18 -1 -37 2
-40 9 -5 7 7 10 39 8 25 -2 48 0 52 4 4 4 -24 7 -62 7 -48 0 -64 -3 -54 -10z"/>
<path d="M4150 1492 c0 -5 -22 -7 -50 -4 -45 4 -50 2 -50 -16 0 -11 -6 -27
-13 -34 -16 -17 -16 -40 1 -46 7 -2 10 2 6 12 -5 13 2 16 37 17 34 2 37 3 14
6 -49 7 -54 23 -6 23 23 0 40 4 37 8 -3 5 -19 7 -36 4 -18 -2 -30 0 -30 7 0
13 40 14 72 2 20 -7 24 -6 25 10 1 10 0 19 -3 19 -2 0 -4 -4 -4 -8z"/>
<path d="M4425 1490 c-16 -4 -49 -8 -71 -9 -41 -1 -66 -22 -43 -36 5 -4 7 -11
4 -16 -9 -14 56 -11 174 8 78 13 98 19 76 23 -16 3 -32 3 -35 -1 -6 -8 -138
-29 -177 -28 l-28 1 29 8 c16 5 60 12 98 16 70 7 83 16 49 34 -22 11 -32 11
-76 0z m73 -9 c9 -5 -8 -11 -45 -15 -32 -4 -75 -9 -95 -13 -25 -4 -38 -2 -38
6 0 6 17 12 38 12 20 1 51 5 67 9 42 11 58 11 73 1z"/>
<path d="M3504 1479 c-4 -6 -19 -9 -38 -5 -28 5 -29 4 -13 -8 21 -16 53 -11
61 10 6 17 0 19 -10 3z"/>
<path d="M3770 1480 c-4 -29 2 -65 14 -72 19 -13 33 -9 39 12 4 16 0 20 -21
21 -25 2 -25 2 -4 6 26 5 27 33 2 41 -13 5 -13 3 -1 -11 11 -15 11 -17 -2 -17
-9 0 -18 8 -20 18 -4 13 -5 13 -7 2z"/>
<path d="M3932 1462 c-12 -2 -20 -8 -17 -13 4 -5 -3 -9 -15 -9 -12 0 -18 5
-15 10 9 14 -7 12 -28 -5 -18 -13 -18 -14 5 -26 20 -11 21 -10 11 2 -10 13 -3
14 55 12 50 -2 62 0 47 7 -18 9 -17 10 8 7 15 -3 27 -1 27 3 0 9 -47 16 -78
12z"/>
<path d="M3300 1448 c0 -4 9 -8 20 -8 11 0 20 4 20 8 0 4 -9 8 -20 8 -11 0
-20 -4 -20 -8z"/>
<path d="M3351 1443 c-1 -18 -7 -23 -26 -23 -15 0 -25 -6 -25 -14 0 -15 20
-25 53 -27 21 -1 21 -1 -1 -7 -13 -4 -23 -10 -23 -14 1 -5 1 -12 1 -18 0 -5 8
-10 19 -10 24 0 30 33 15 90 -7 25 -13 35 -13 23z m9 -43 c0 -13 -20 -13 -40
0 -12 8 -9 10 13 10 15 0 27 -4 27 -10z"/>
<path d="M4617 1443 c-11 -11 -167 -35 -234 -37 -77 -1 -84 -16 -9 -16 30 0
58 -4 61 -10 3 -5 14 -10 23 -10 13 0 13 2 -3 14 -18 13 -18 14 1 19 10 3 49
9 85 12 64 7 99 18 88 29 -3 4 -9 3 -12 -1z"/>
<path d="M4898 1431 c-54 -8 -98 -18 -98 -21 0 -6 190 20 199 27 12 9 -13 7
-101 -6z"/>
<path d="M3153 1413 c0 -15 2 -22 4 -15 3 6 18 12 34 12 30 0 38 13 17 26 -7
4 -8 3 -4 -4 9 -15 -26 -16 -41 -1 -7 7 -10 2 -10 -18z"/>
<path d="M3493 1433 c32 -8 18 -21 -20 -18 -21 1 -28 0 -15 -2 17 -3 21 -10
18 -28 -3 -17 1 -25 17 -29 31 -8 39 6 32 48 -6 29 -12 36 -29 35 -17 -1 -17
-2 -3 -6z"/>
<path d="M3945 1415 c-5 -2 -23 -6 -38 -9 -17 -4 -25 -11 -21 -18 5 -8 2 -9
-9 -5 -10 3 -17 2 -17 -3 0 -10 13 -13 60 -12 15 0 8 -4 -17 -10 -44 -11 -62
-30 -20 -21 16 3 18 2 8 -5 -10 -7 -4 -11 22 -14 20 -2 33 0 31 4 -3 4 -12 8
-20 8 -8 0 -14 5 -14 11 0 8 15 10 45 7 24 -3 42 -2 39 3 -3 5 -14 9 -25 9
-24 0 -25 18 -1 36 16 13 16 14 -2 7 -13 -4 -17 -3 -12 5 4 7 6 12 4 11 -2 0
-7 -2 -13 -4z m-5 -25 c0 -5 -9 -10 -21 -10 -11 0 -17 5 -14 10 3 6 13 10 21
10 8 0 14 -4 14 -10z"/>
<path d="M4638 1415 c-3 -3 -34 -10 -69 -15 l-64 -9 70 6 c39 3 83 6 98 6 20
0 24 2 15 8 -15 10 -42 12 -50 4z"/>
<path d="M4166 1395 c-16 -9 -55 -15 -90 -15 -43 0 -57 -3 -46 -10 8 -5 11
-10 7 -10 -4 0 -2 -6 5 -14 7 -8 17 -11 23 -8 5 3 25 5 44 3 19 -1 33 1 30 4
-4 3 -23 6 -43 7 -20 1 -40 6 -43 11 -4 6 15 8 50 5 35 -3 55 -1 54 6 -1 5 6
12 17 14 11 2 16 0 12 -7 -5 -7 11 -11 50 -11 32 0 54 3 50 7 -3 4 -24 6 -46
5 -22 -2 -40 2 -40 7 0 6 24 12 53 14 l52 3 -55 2 c-33 1 -67 -4 -84 -13z"/>
<path d="M2904 1383 c4 -7 2 -13 -4 -13 -6 0 -8 -5 -4 -11 4 -8 9 -8 17 0 8 8
7 14 -2 24 -11 10 -13 10 -7 0z"/>
<path d="M3188 1383 c14 -3 22 -12 22 -24 0 -16 -7 -19 -39 -19 -22 0 -42 -4
-45 -9 -3 -4 6 -6 19 -3 14 2 25 0 25 -6 0 -5 18 -12 41 -14 33 -3 37 -2 24 8
-11 9 -15 22 -12 43 5 29 4 31 -26 30 -24 -1 -26 -3 -9 -6z"/>
<path d="M3751 1382 c-21 -7 7 -41 29 -35 11 3 20 9 20 13 0 5 10 10 23 12 13
3 6 6 -20 9 -23 2 -47 3 -52 1z"/>
<path d="M2682 1360 c3 -10 19 -15 49 -16 35 -1 37 -1 9 3 -19 3 -41 10 -49
16 -11 10 -13 9 -9 -3z"/>
<path d="M2993 1355 c0 -8 6 -15 14 -15 8 0 13 -12 13 -30 0 -26 3 -30 28 -29
23 2 24 2 5 6 -13 2 -23 9 -23 15 0 5 7 8 15 4 16 -6 32 35 20 53 -10 17 -72
14 -72 -4z m62 -5 c8 -13 -15 -13 -35 0 -12 8 -11 10 7 10 12 0 25 -4 28 -10z"/>
<path d="M4270 1354 c-24 -8 -60 -12 -80 -9 l-35 5 33 -11 c25 -7 46 -6 82 4
36 11 52 11 61 3 9 -8 10 -8 5 1 -4 8 8 13 41 16 l48 3 -55 1 c-30 1 -75 -5
-100 -13z"/>
<path d="M3575 1352 c-9 -9 -5 -32 5 -32 6 0 9 4 8 9 -2 5 2 8 7 8 6 -1 9 -7
9 -13 -1 -6 9 -9 22 -6 15 3 24 11 24 23 0 15 -7 18 -35 17 -19 -1 -37 -4 -40
-6z"/>
<path d="M2850 1332 c0 -14 8 -21 30 -24 59 -9 61 26 2 38 -28 6 -32 4 -32
-14z m50 -2 c12 -8 9 -10 -12 -10 -16 0 -28 5 -28 10 0 13 20 13 40 0z"/>
<path d="M3458 1332 c-14 -3 -16 -8 -8 -21 11 -21 57 -18 57 4 0 15 -23 23
-49 17z"/>
<path d="M2684 1319 c-3 -5 0 -9 6 -9 6 0 9 -4 6 -9 -4 -5 8 -13 26 -17 31 -7
32 -8 9 -13 -13 -4 -25 -14 -27 -24 -2 -13 5 -17 29 -16 24 1 26 3 10 6 -13 2
-23 9 -23 15 0 5 6 8 14 5 14 -6 44 38 33 49 -11 11 -77 22 -83 13z m71 -19
c8 -13 -15 -13 -35 0 -12 8 -11 10 7 10 12 0 25 -4 28 -10z"/>
<path d="M3800 1323 c24 -3 51 -10 60 -16 13 -11 13 -10 1 6 -10 12 -26 17
-60 15 l-46 -1 45 -4z"/>
<path d="M3964 1308 c-8 -13 6 -28 24 -27 11 0 12 3 5 6 -31 12 -7 19 66 18
44 0 74 3 68 7 -15 9 -157 6 -163 -4z"/>
<path d="M3300 1290 c0 -14 6 -20 23 -19 16 1 18 2 5 6 -10 2 -18 9 -18 15 0
6 9 8 20 5 11 -3 20 -1 20 4 0 5 -11 9 -25 9 -18 0 -25 -5 -25 -20z"/>
<path d="M3605 1299 c-36 -6 -37 -6 -10 -9 30 -2 30 -2 5 -10 -21 -7 -17 -8
21 -9 34 -1 46 3 46 14 0 19 -14 22 -62 14z"/>
<path d="M3770 1298 c0 -11 38 -10 44 1 3 5 -5 8 -19 7 -14 0 -25 -4 -25 -8z"/>
<path d="M2530 1286 c0 -19 8 -23 45 -27 21 -3 30 0 30 11 0 17 -20 28 -52 29
-14 1 -23 -5 -23 -13z m55 -6 c3 -5 -3 -10 -14 -10 -11 0 -23 5 -26 10 -3 6 3
10 14 10 11 0 23 -4 26 -10z"/>
<path d="M3875 1290 c-3 -5 -18 -11 -33 -11 -19 -1 -22 -3 -8 -6 10 -3 29 1
42 7 12 7 30 10 39 6 9 -3 13 -2 10 4 -8 13 -42 13 -50 0z"/>
<path d="M2860 1276 c0 -8 7 -16 15 -20 22 -8 45 3 38 20 -7 18 -53 18 -53 0z"/>
<path d="M3143 1282 c-8 -5 -9 -13 -3 -22 6 -8 10 -27 10 -42 0 -24 4 -28 28
-27 23 2 24 2 5 6 -13 2 -23 9 -23 15 0 6 9 8 20 5 11 -3 20 -1 20 4 0 5 -9 9
-20 9 -11 0 -20 5 -20 10 0 6 7 10 15 10 20 0 19 26 -1 34 -19 7 -16 7 -31 -2z"/>
<path d="M1930 1259 c-52 -10 -111 -19 -130 -19 -19 -1 -29 -4 -21 -7 19 -8
251 28 251 39 0 4 -1 7 -2 7 -2 -1 -46 -10 -98 -20z"/>
<path d="M3462 1263 c4 -20 48 -31 48 -13 0 6 -4 8 -10 5 -5 -3 -16 -3 -22 2
-9 5 -3 10 17 14 l30 7 -33 1 c-27 1 -33 -3 -30 -16z"/>
<path d="M2140 1261 c0 -5 10 -7 23 -5 12 2 16 2 9 -2 -6 -3 -10 -10 -6 -15 7
-13 24 -1 24 17 0 8 -10 14 -25 14 -14 0 -25 -4 -25 -9z"/>
<path d="M2380 1251 c14 -28 73 -30 68 -3 -2 12 -14 18 -41 20 -36 3 -38 2
-27 -17z m55 -1 c3 -5 -3 -10 -14 -10 -11 0 -23 5 -26 10 -3 6 3 10 14 10 11
0 23 -4 26 -10z"/>
<path d="M2987 1254 c-13 -13 7 -34 32 -33 23 2 24 2 4 6 -13 2 -23 9 -23 14
0 6 9 7 21 4 15 -5 19 -4 15 4 -8 12 -39 15 -49 5z"/>
<path d="M3303 1252 c-32 -2 -41 -7 -36 -18 7 -20 93 -20 93 0 0 19 -7 22 -57
18z"/>
<path d="M2552 1223 c2 -10 12 -18 23 -18 11 0 21 8 23 18 3 13 -3 17 -23 17
-20 0 -26 -4 -23 -17z"/>
<path d="M2833 1185 c2 -36 6 -45 20 -45 10 0 25 7 34 16 9 8 21 13 28 10 8
-3 16 2 19 9 4 11 0 12 -21 4 -30 -11 -44 1 -36 32 4 15 0 19 -20 19 -23 0
-25 -3 -24 -45z"/>
<path d="M2673 1204 c-20 -9 -2 -34 23 -34 27 0 33 24 8 34 -9 3 -16 6 -17 5
-1 0 -7 -3 -14 -5z"/>
<path d="M2994 1185 c3 -22 12 -27 34 -21 29 10 23 36 -9 36 -18 0 -27 -5 -25
-15z"/>
<path d="M1732 1175 c3 -21 48 -35 48 -15 0 6 -5 8 -12 4 -6 -4 -18 2 -25 12
-14 19 -15 19 -11 -1z"/>
<path d="M2293 1182 c-8 -5 -3 -11 13 -19 17 -8 26 -8 31 -1 3 6 1 8 -5 4 -6
-3 -13 -2 -16 3 -4 5 4 12 16 14 22 4 22 4 -2 5 -14 1 -30 -2 -37 -6z"/>
<path d="M3078 1152 c-41 -25 -34 -35 8 -12 32 19 38 19 65 6 16 -8 29 -11 29
-7 0 9 -46 31 -63 30 -7 0 -24 -8 -39 -17z"/>
<path d="M2420 1153 c-33 -6 -41 -15 -31 -32 7 -11 20 -12 77 -1 38 7 63 15
56 17 -6 3 -10 9 -6 14 5 9 -49 10 -96 2z m75 -12 c-15 -14 -95 -25 -95 -13 0
11 26 18 75 21 17 0 25 -3 20 -8z"/>
<path d="M1811 1133 c-1 -17 5 -23 18 -23 11 0 23 5 27 11 4 7 0 9 -14 5 -15
-5 -22 -2 -25 11 -4 14 -5 13 -6 -4z"/>
<path d="M2912 1129 c-12 -5 -22 -13 -22 -19 0 -6 7 -5 20 2 16 10 24 10 41 0
29 -18 35 -8 7 10 -16 10 -30 13 -46 7z"/>
<path d="M4675 954 c-506 -95 -1035 -194 -1175 -220 -486 -90 -805 -152 -786
-153 11 -1 137 21 280 48 144 27 371 70 506 95 135 25 655 122 1155 216 501
93 920 171 932 173 25 3 40 14 21 13 -7 0 -427 -78 -933 -172z"/>
<path d="M2470 1098 l-35 -10 25 -11 c25 -10 60 -10 70 0 3 3 -7 3 -23 1 -15
-3 -30 -1 -33 3 -5 8 13 13 44 12 6 -1 12 3 12 8 0 11 -15 10 -60 -3z"/>
<path d="M2724 1084 c-19 -15 -19 -16 1 -8 11 4 35 8 53 8 20 0 28 3 20 8 -21
13 -53 9 -74 -8z"/>
<path d="M1931 1064 c-1 -26 25 -39 33 -17 4 10 2 14 -8 10 -9 -4 -17 1 -19
11 -4 13 -5 12 -6 -4z"/>
<path d="M2571 1076 c2 -2 20 -6 39 -10 25 -4 31 -3 20 4 -14 9 -69 15 -59 6z"/>
<path d="M1970 1016 c0 -2 55 -37 123 -76 368 -217 584 -340 599 -340 6 0 -44
32 -113 71 -259 149 -457 263 -525 305 -68 42 -84 49 -84 40z"/>
<path d="M2345 998 c-27 -5 -63 -13 -80 -18 -47 -13 60 0 125 15 63 15 30 17
-45 3z"/>
</g>
</svg>
